<?xml version="1.0" standalone="no"?>
<!DOCTYPE svg PUBLIC "-//W3C//DTD SVG 20010904//EN"
 "http://www.w3.org/TR/2001/REC-SVG-20010904/DTD/svg10.dtd">
<svg version="1.0" xmlns="http://www.w3.org/2000/svg"
 width="1600.000000pt" height="1600.000000pt" viewBox="0 0 1600.000000 1600.000000"
 preserveAspectRatio="xMidYMid meet">

<g transform="translate(0.000000,1600.000000) scale(0.100000,-0.100000)"
fill="#000000" stroke="none">
<path d="M7645 14221 c-76 -30 -85 -35 -232 -127 -445 -279 -985 -492 -1653
-653 -249 -60 -497 -108 -835 -164 -139 -23 -214 -35 -560 -88 -257 -39 -375
-59 -398 -68 -34 -13 -75 -66 -82 -104 -3 -18 -15 -142 -26 -277 -16 -184 -23
-355 -26 -685 -9 -753 23 -1161 151 -1965 34 -212 126 -638 181 -840 8 -30 27
-98 41 -150 127 -466 319 -979 511 -1365 94 -188 131 -248 155 -253 11 -2 40
35 94 120 452 715 865 1260 1343 1773 201 216 524 524 740 705 30 25 59 50 65
55 6 6 58 48 116 93 58 46 112 89 120 95 16 14 163 122 275 204 203 148 622
409 919 573 136 74 599 310 610 310 3 0 44 18 92 40 452 210 1080 429 1644
573 298 77 472 113 865 182 186 33 629 89 790 100 222 16 133 39 -290 75 -607
51 -892 63 -1355 57 -519 -7 -834 -31 -1290 -96 -312 -45 -721 -125 -945 -186
-27 -8 -95 -26 -150 -40 -267 -71 -665 -209 -940 -327 -286 -122 -727 -351
-950 -493 -343 -218 -661 -450 -871 -637 -260 -229 -554 -532 -794 -814 -182
-213 -182 -214 -211 -214 -19 0 -33 8 -43 23 -20 32 -103 458 -145 747 -87
596 -111 954 -110 1630 0 310 4 445 12 470 21 62 60 74 387 121 202 29 743
141 965 199 61 16 135 36 165 43 238 63 672 204 898 293 190 75 440 188 637
288 203 103 224 111 275 110 43 0 68 -8 115 -34 337 -188 801 -383 1250 -527
615 -197 1038 -288 1545 -335 291 -26 946 -11 987 24 24 20 6 282 -26 368 -22
62 -52 74 -256 105 -341 52 -831 131 -993 161 -494 90 -896 193 -1320 339
-399 137 -715 285 -967 455 -215 144 -331 171 -480 111z"/>
<path d="M7220 13028 c-36 -23 -78 -49 -95 -58 -16 -9 -100 -59 -185 -109 -85
-51 -231 -138 -325 -194 -93 -55 -260 -154 -370 -220 -179 -108 -445 -263
-580 -339 -27 -15 -55 -28 -62 -28 -7 0 -41 22 -76 48 -79 59 -194 117 -270
137 -32 8 -97 15 -145 15 -200 0 -349 -94 -433 -274 -50 -108 -59 -156 -55
-306 2 -115 7 -148 30 -219 83 -253 258 -458 480 -562 147 -69 310 -77 443
-22 93 39 197 141 242 238 59 125 76 287 47 439 -16 82 -21 75 136 171 542
332 602 366 616 348 7 -10 45 -71 83 -135 39 -65 76 -118 83 -118 12 0 250
140 267 157 5 5 -27 67 -71 138 -44 72 -80 135 -80 142 0 10 136 93 152 93 3
0 56 -85 118 -190 62 -104 116 -190 120 -190 3 0 27 14 53 30 26 17 50 30 52
30 6 0 214 128 232 142 13 10 12 13 -42 98 -23 35 -167 280 -173 291 -2 4 24
24 58 44 58 35 60 38 47 59 -18 27 -119 197 -182 304 -26 45 -48 82 -49 81 -1
0 -30 -19 -66 -41z m-1960 -1035 c156 -73 293 -239 345 -416 22 -77 23 -216 2
-288 -21 -71 -84 -144 -135 -159 -129 -35 -282 19 -406 145 -48 49 -52 54 -92
120 -103 172 -129 359 -69 502 16 37 81 100 123 120 47 22 158 10 232 -24z"/>
<path d="M12490 12091 c-96 -9 -179 -19 -185 -22 -5 -3 -28 -7 -50 -8 -43 -2
-178 -20 -180 -24 -1 -1 -7 -110 -14 -242 -6 -132 -16 -285 -22 -340 -6 -55
-11 -135 -12 -177 -1 -49 -6 -78 -13 -78 -6 0 -14 -29 -17 -68 -9 -92 -54
-332 -81 -431 -8 -30 -14 -57 -14 -60 2 -10 -58 -216 -107 -366 -50 -152 -99
-282 -134 -358 -17 -38 -31 -71 -31 -74 0 -6 -19 -49 -66 -149 -13 -28 -24
-58 -24 -67 0 -10 -4 -17 -10 -17 -5 0 -10 -5 -10 -11 0 -6 -20 -53 -45 -106
-31 -63 -44 -101 -40 -116 5 -16 4 -18 -3 -8 -8 11 -15 4 -31 -32 -12 -25 -21
-53 -21 -61 0 -9 -4 -16 -9 -16 -6 0 -24 -30 -42 -67 -18 -38 -37 -71 -43 -75
-5 -4 -10 -23 -10 -42 0 -20 -3 -31 -7 -25 -4 6 -33 -38 -65 -97 -33 -60 -63
-117 -69 -126 -5 -9 -25 -45 -44 -80 -18 -35 -41 -74 -51 -88 -9 -14 -20 -32
-23 -40 -4 -8 -18 -33 -32 -55 -13 -22 -32 -53 -41 -70 -23 -40 -202 -323
-214 -338 -6 -7 -36 -52 -68 -102 -50 -77 -118 -172 -177 -250 -17 -22 -20
-39 -5 -30 6 3 10 1 10 -5 0 -7 -7 -10 -15 -7 -9 4 -23 -6 -37 -26 -12 -18
-25 -34 -28 -37 -3 -3 -18 -25 -35 -49 -16 -24 -35 -45 -42 -48 -7 -3 -13 -10
-13 -16 0 -6 -8 -19 -17 -29 -15 -17 -15 -21 -3 -30 13 -8 12 -9 -2 -5 -11 4
-25 -6 -42 -28 -27 -35 -33 -51 -16 -40 6 3 10 1 10 -4 0 -6 -8 -10 -19 -8
-12 1 -32 -16 -57 -49 -45 -59 -116 -145 -156 -188 -16 -16 -28 -32 -28 -35 0
-3 -19 -27 -43 -52 -129 -140 -192 -214 -191 -226 1 -7 -2 -10 -7 -7 -5 3 -35
-23 -66 -57 -68 -73 -393 -395 -473 -468 -30 -28 -94 -83 -142 -123 -48 -40
-87 -79 -87 -85 -1 -7 -7 -13 -13 -13 -7 0 -31 -17 -54 -38 -23 -20 -48 -41
-56 -47 -39 -25 -235 -183 -265 -213 -18 -18 -33 -31 -33 -27 0 6 -84 -50
-108 -73 -8 -6 -22 -17 -32 -22 -11 -6 -17 -17 -14 -24 3 -8 1 -17 -5 -21 -7
-4 -8 0 -4 11 5 14 3 15 -18 4 -36 -20 -144 -94 -147 -102 -2 -5 -8 -8 -13 -8
-16 0 -69 -43 -63 -51 3 -5 -2 -6 -11 -3 -9 4 -25 -4 -39 -19 -13 -14 -26 -23
-29 -20 -3 3 -19 -3 -34 -13 -55 -36 -68 -45 -101 -60 -32 -14 -35 -14 -67 10
-19 15 -36 26 -39 26 -8 0 -241 146 -281 175 -16 12 -36 20 -44 17 -8 -2 -11
0 -8 5 3 5 -3 16 -15 24 -11 8 -63 44 -114 82 -52 37 -96 67 -98 67 -3 0 -19
13 -37 30 -18 16 -35 28 -37 25 -2 -2 -16 8 -31 23 -14 15 -44 40 -66 57 -22
16 -46 35 -54 42 -7 8 -23 11 -35 8 -17 -5 -18 -4 -6 5 13 9 12 12 -5 25 -26
20 -51 41 -96 79 -71 61 -153 131 -177 151 -14 11 -35 31 -48 43 -13 14 -28
21 -35 16 -8 -5 -9 -3 -4 6 8 14 -53 72 -67 64 -5 -3 -8 -2 -6 3 1 4 -107 117
-240 250 -133 134 -242 237 -242 231 0 -6 7 -20 17 -30 9 -10 12 -18 6 -18
-14 0 -37 46 -28 59 3 6 -9 27 -28 46 -35 35 -54 46 -41 23 4 -8 3 -9 -2 -5
-5 5 -9 14 -9 22 0 18 -157 203 -172 204 -7 1 -13 6 -13 11 0 14 -119 160
-131 160 -5 0 -8 3 -7 8 5 13 -65 92 -75 85 -6 -3 -7 -1 -3 5 8 13 -83 134
-95 126 -5 -3 -9 3 -9 13 0 10 -13 -1 -32 -30 -18 -27 -52 -75 -76 -108 -31
-44 -41 -66 -37 -82 4 -15 3 -18 -3 -9 -6 10 -25 -10 -70 -72 -34 -46 -62 -89
-62 -94 0 -5 -6 -12 -12 -15 -7 -2 -28 -25 -45 -50 l-33 -45 75 -93 c42 -52
90 -111 108 -133 17 -21 36 -45 40 -53 5 -9 17 -12 30 -8 16 5 18 4 8 -3 -11
-8 1 -28 60 -96 41 -47 77 -86 82 -86 4 0 7 -5 7 -10 0 -6 9 -21 20 -33 18
-19 22 -20 31 -7 9 13 10 12 6 -2 -8 -23 36 -72 323 -358 219 -219 312 -308
406 -390 85 -74 84 -73 99 -60 11 9 15 9 15 1 0 -6 -4 -11 -10 -11 -21 0 -9
-17 37 -52 27 -21 59 -47 73 -60 14 -13 54 -46 90 -73 36 -28 73 -58 82 -67
10 -10 21 -18 25 -18 5 0 22 -13 38 -28 36 -34 179 -142 188 -142 3 0 19 -12
34 -26 15 -14 66 -51 113 -82 47 -31 87 -59 90 -62 3 -3 37 -26 77 -52 46 -31
79 -46 90 -42 12 4 14 3 6 -3 -9 -7 -2 -16 27 -34 22 -13 40 -27 40 -31 0 -5
6 -8 13 -8 7 0 34 -13 59 -29 122 -77 408 -224 408 -209 0 6 3 9 6 5 6 -6 31
5 154 67 62 32 163 86 188 101 9 6 38 23 65 39 26 15 47 32 47 37 0 5 7 9 15
9 12 0 204 117 240 147 6 4 29 21 52 37 24 16 40 33 36 39 -3 6 -1 7 5 3 13
-7 132 70 132 85 0 5 5 9 11 9 20 0 168 115 164 127 -3 7 2 10 12 6 12 -5 14
-3 8 7 -6 9 -4 11 5 5 7 -4 15 -3 19 2 3 5 44 40 91 77 92 73 153 123 209 172
20 17 79 69 131 114 126 110 158 141 389 370 255 253 353 359 345 372 -4 6 -2
8 3 5 6 -4 37 23 69 60 33 36 76 85 96 107 21 23 38 43 38 46 0 3 18 26 41 50
22 24 45 55 50 68 5 14 12 22 16 19 9 -10 144 166 138 181 -3 7 1 12 9 10 13
-3 156 172 156 191 0 5 4 11 9 13 9 3 79 96 173 229 26 37 44 69 41 73 -4 3
-2 6 4 6 6 0 18 12 28 26 14 22 15 28 4 36 -11 8 -11 9 2 5 11 -4 27 10 50 41
54 73 79 118 71 127 -4 5 -2 5 4 2 15 -8 45 47 38 70 -4 13 -3 14 3 5 7 -9 26
12 68 80 31 51 66 105 76 120 10 15 16 35 13 45 -4 14 -3 15 4 4 7 -10 16 1
37 43 15 31 32 59 37 62 5 3 6 15 3 27 -5 17 -4 19 4 7 8 -12 12 -10 20 10 6
14 17 34 23 44 39 60 80 128 88 148 6 13 23 46 38 73 95 170 151 286 146 302
-4 12 -3 14 3 5 7 -9 14 -2 26 24 10 19 15 40 12 45 -4 5 -2 9 4 9 10 0 151
279 155 305 1 6 12 28 24 48 12 21 22 43 22 49 0 6 9 27 19 47 23 42 37 75 81
186 18 44 41 98 51 120 18 39 85 215 116 305 11 31 12 45 4 48 -6 2 -11 8 -11
13 0 4 7 6 15 3 10 -4 15 0 15 13 0 10 5 24 12 31 6 6 11 31 12 56 1 24 4 39
8 33 6 -9 48 115 48 142 0 6 4 19 9 29 5 9 20 62 32 117 23 105 26 119 35 175
3 19 9 44 14 55 8 18 44 241 80 494 18 133 20 150 24 266 2 61 6 117 9 125 9
26 19 480 10 479 -4 -1 -87 -9 -183 -18z m147 -7 c-3 -3 -12 -4 -19 -1 -8 3
-5 6 6 6 11 1 17 -2 13 -5z m-354 -41 c-7 -2 -21 -2 -30 0 -10 3 -4 5 12 5 17
0 24 -2 18 -5z m-100 -10 c-7 -2 -21 -2 -30 0 -10 3 -4 5 12 5 17 0 24 -2 18
-5z m-106 -345 c-3 -7 -5 -2 -5 12 0 14 2 19 5 13 2 -7 2 -19 0 -25z m-10
-240 c-3 -8 -6 -5 -6 6 -1 11 2 17 5 13 3 -3 4 -12 1 -19z m10 -60 c-3 -8 -6
-5 -6 6 -1 11 2 17 5 13 3 -3 4 -12 1 -19z m533 -178 c0 -5 -5 -10 -11 -10 -5
0 -7 5 -4 10 3 6 8 10 11 10 2 0 4 -4 4 -10z m-33 -257 c-3 -10 -5 -2 -5 17 0
19 2 27 5 18 2 -10 2 -26 0 -35z m-584 2 c-3 -9 -8 -14 -10 -11 -3 3 -2 9 2
15 9 16 15 13 8 -4z m-8 -74 c3 -5 1 -12 -5 -16 -5 -3 -10 1 -10 9 0 18 6 21
15 7z m542 -183 c-3 -8 -6 -5 -6 6 -1 11 2 17 5 13 3 -3 4 -12 1 -19z m-30
-130 c-3 -7 -5 -2 -5 12 0 14 2 19 5 13 2 -7 2 -19 0 -25z m-596 -15 c-12 -20
-14 -14 -5 12 4 9 9 14 11 11 3 -2 0 -13 -6 -23z m586 -25 c-3 -8 -6 -5 -6 6
-1 11 2 17 5 13 3 -3 4 -12 1 -19z m-580 -65 c-3 -10 -5 -4 -5 12 0 17 2 24 5
18 2 -7 2 -21 0 -30z m510 -115 c-3 -8 -6 -5 -6 6 -1 11 2 17 5 13 3 -3 4 -12
1 -19z m-616 -111 c-10 -9 -11 -8 -5 6 3 10 9 15 12 12 3 -3 0 -11 -7 -18z
m-224 -589 c-3 -8 -6 -5 -6 6 -1 11 2 17 5 13 3 -3 4 -12 1 -19z m520 -180
c-3 -8 -6 -5 -6 6 -1 11 2 17 5 13 3 -3 4 -12 1 -19z m-677 -178 c0 -5 -4 -10
-10 -10 -5 0 -10 5 -10 10 0 6 5 10 10 10 6 0 10 -4 10 -10z m602 -24 c-5 -6
-12 -18 -15 -26 -3 -8 -4 -1 -4 16 1 21 6 30 15 27 8 -3 9 -10 4 -17z m-686
-128 c-19 -27 -21 -19 -4 18 7 14 14 21 16 15 2 -6 -4 -21 -12 -33z m521 -170
c-3 -8 -6 -5 -6 6 -1 11 2 17 5 13 3 -3 4 -12 1 -19z m6 -33 c-3 -9 -8 -14
-10 -11 -3 3 -2 9 2 15 9 16 15 13 8 -4z m-696 -110 c-7 -14 -15 -25 -19 -25
-4 0 -2 11 4 25 6 14 15 25 19 25 4 0 2 -11 -4 -25z m-65 -147 c-7 -7 -12 -8
-12 -2 0 14 12 26 19 19 2 -3 -1 -11 -7 -17z m599 -51 c-13 -12 -20 -15 -15
-7 12 22 28 39 33 34 3 -3 -6 -15 -18 -27z m-704 -89 c-3 -8 -6 -5 -6 6 -1 11
2 17 5 13 3 -3 4 -12 1 -19z m30 -15 c-3 -10 -5 -4 -5 12 0 17 2 24 5 18 2 -7
2 -21 0 -30z m-89 -102 c-7 -12 -16 -21 -21 -21 -4 0 0 11 9 25 20 30 31 26
12 -4z m-65 -86 c-3 -9 -8 -14 -10 -11 -3 3 -2 9 2 15 9 16 15 13 8 -4z m597
-125 c0 -5 -4 -10 -10 -10 -5 0 -10 5 -10 10 0 6 5 10 10 10 6 0 10 -4 10 -10z
m-680 -26 c0 -8 -4 -12 -10 -9 -5 3 -10 10 -10 16 0 5 5 9 10 9 6 0 10 -7 10
-16z m617 -56 c-3 -8 -6 -5 -6 6 -1 11 2 17 5 13 3 -3 4 -12 1 -19z m-717 -88
c0 -11 -4 -20 -9 -20 -5 0 -7 9 -4 20 3 11 7 20 9 20 2 0 4 -9 4 -20z m640
-45 c0 -3 -9 -14 -20 -25 -22 -22 -28 -8 -7 15 12 14 27 20 27 10z m-695 -55
c3 -5 1 -10 -4 -10 -6 0 -11 5 -11 10 0 6 2 10 4 10 3 0 8 -4 11 -10z m-85
-100 c0 -5 -4 -10 -10 -10 -5 0 -10 5 -10 10 0 6 5 10 10 10 6 0 10 -4 10 -10z
m-33 -52 c-3 -8 -6 -5 -6 6 -1 11 2 17 5 13 3 -3 4 -12 1 -19z m641 -50 c-8
-12 -21 -24 -29 -27 -8 -2 -3 8 11 22 31 33 37 34 18 5z m-58 -92 c0 -3 -4 -8
-10 -11 -5 -3 -10 -1 -10 4 0 6 5 11 10 11 6 0 10 -2 10 -4z m-5612 -105 c-7
-12 -16 -21 -21 -21 -4 0 0 11 9 25 20 30 31 26 12 -4z m42 0 c7 -14 7 -22 -2
-27 -6 -4 -8 -3 -4 4 3 6 2 13 -4 17 -10 6 -14 25 -5 25 2 0 9 -9 15 -19z
m-96 -85 c-3 -9 -10 -16 -15 -16 -5 0 -4 9 3 20 14 22 21 20 12 -4z m-43 -59
c-10 -9 -11 -8 -5 6 3 10 9 15 12 12 3 -3 0 -11 -7 -18z m259 -22 c0 -11 -5
-10 -20 5 -11 11 -20 22 -20 25 0 3 9 1 20 -5 11 -6 20 -17 20 -25z m5260 0
c-7 -9 -15 -13 -18 -10 -3 2 1 11 8 20 7 9 15 13 18 10 3 -2 -1 -11 -8 -20z
m-5560 -49 c0 -8 -7 -16 -15 -20 -12 -4 -13 -2 -2 14 14 24 17 25 17 6z m5490
-46 c0 -5 -5 -10 -11 -10 -5 0 -7 5 -4 10 3 6 8 10 11 10 2 0 4 -4 4 -10z
m-5567 -45 c-3 -9 -8 -14 -10 -11 -3 3 -2 9 2 15 9 16 15 13 8 -4z m5467 -75
c0 -5 -2 -10 -4 -10 -3 0 -8 5 -11 10 -3 6 -1 10 4 10 6 0 11 -4 11 -10z
m-5546 -34 c-3 -9 -10 -16 -15 -16 -5 0 -4 9 3 20 14 22 21 20 12 -4z m686
-14 c0 -1 -9 2 -20 8 -11 6 -20 15 -20 20 0 6 9 2 20 -7 11 -10 20 -19 20 -21z
m4093 3 c-3 -9 -8 -14 -10 -11 -3 3 -2 9 2 15 9 16 15 13 8 -4z m-4068 -35 c3
-5 1 -10 -4 -10 -6 0 -11 5 -11 10 0 6 2 10 4 10 3 0 8 -4 11 -10z m-700 -48
c-3 -3 -11 0 -18 7 -9 10 -8 11 6 5 10 -3 15 -9 12 -12z m5418 1 c-7 -2 -19
-2 -25 0 -7 3 -2 5 12 5 14 0 19 -2 13 -5z m-5388 -33 c3 -5 1 -10 -4 -10 -6
0 -11 5 -11 10 0 6 2 10 4 10 3 0 8 -4 11 -10z m4650 0 c-3 -5 -12 -10 -18
-10 -7 0 -6 4 3 10 19 12 23 12 15 0z m698 -30 c3 -11 1 -20 -4 -20 -5 0 -9 9
-9 20 0 11 2 20 4 20 2 0 6 -9 9 -20z m-733 -4 c0 -2 -7 -7 -16 -10 -8 -3 -12
-2 -9 4 6 10 25 14 25 6z m-3806 -45 c3 -5 -1 -11 -9 -14 -9 -4 -12 -1 -8 9 6
16 10 17 17 5z m3636 -138 c0 -5 -13 -17 -28 -27 l-27 -19 24 26 c26 28 31 32
31 20z m-3470 -33 c0 -5 -2 -10 -4 -10 -3 0 -8 5 -11 10 -3 6 -1 10 4 10 6 0
11 -4 11 -10z m27 -26 c-3 -3 -12 -4 -19 -1 -8 3 -5 6 6 6 11 1 17 -2 13 -5z
m-753 -19 c3 -8 1 -15 -3 -15 -5 0 -11 7 -15 15 -3 8 -1 15 3 15 5 0 11 -7 15
-15z m4866 -20 c-13 -14 -26 -23 -29 -20 -6 6 42 54 48 49 3 -2 -6 -15 -19
-29z m-770 -9 c0 -3 -4 -8 -10 -11 -5 -3 -10 -1 -10 4 0 6 5 11 10 11 6 0 10
-2 10 -4z m-63 -58 c-3 -8 -6 -5 -6 6 -1 11 2 17 5 13 3 -3 4 -12 1 -19z m753
-23 c-13 -14 -26 -23 -28 -20 -4 4 38 44 47 45 3 0 -6 -11 -19 -25z m-3883
-31 c-3 -3 -12 -4 -19 -1 -8 3 -5 6 6 6 11 1 17 -2 13 -5z m3812 -33 c7 -5 9
-11 5 -14 -5 -3 -15 1 -22 9 -14 16 -5 18 17 5z m-4479 -81 c0 -5 -4 -10 -10
-10 -5 0 -10 5 -10 10 0 6 5 10 10 10 6 0 10 -4 10 -10z m3594 -35 c-28 -22
-40 -18 -13 4 13 11 26 17 28 15 3 -2 -4 -11 -15 -19z m-3499 -66 c14 -22 -3
-18 -26 7 -23 25 -23 26 -2 15 12 -6 25 -16 28 -22z m855 -69 c0 -5 -2 -10 -4
-10 -3 0 -8 5 -11 10 -3 6 -1 10 4 10 6 0 11 -4 11 -10z m3190 -55 c-7 -9 -15
-13 -19 -10 -3 3 1 10 9 15 21 14 24 12 10 -5z m26 -30 c-9 -9 -16 -13 -16 -8
0 12 22 34 28 28 2 -2 -3 -11 -12 -20z m-3921 4 c11 -17 -1 -21 -15 -4 -8 9
-8 15 -2 15 6 0 14 -5 17 -11z m820 -9 c3 -5 2 -10 -4 -10 -5 0 -13 5 -16 10
-3 6 -2 10 4 10 5 0 13 -4 16 -10z m2256 -13 c-10 -9 -11 -8 -5 6 3 10 9 15
12 12 3 -3 0 -11 -7 -18z m769 -62 c-7 -9 -15 -13 -17 -11 -7 7 7 26 19 26 6
0 6 -6 -2 -15z m-850 2 c0 -2 -10 -12 -22 -23 l-23 -19 19 23 c18 21 26 27 26
19z m-2053 -33 c-3 -3 -12 -4 -19 -1 -8 3 -5 6 6 6 11 1 17 -2 13 -5z m-782
-44 c3 -5 2 -10 -4 -10 -5 0 -13 5 -16 10 -3 6 -2 10 4 10 5 0 13 -4 16 -10z
m865 -20 c0 -5 -2 -10 -4 -10 -3 0 -8 5 -11 10 -3 6 -1 10 4 10 6 0 11 -4 11
-10z m2640 -60 c0 -5 -8 -10 -17 -10 -15 0 -16 2 -3 10 19 12 20 12 20 0z
m-2555 -10 c3 -6 -1 -7 -9 -4 -18 7 -21 14 -7 14 6 0 13 -4 16 -10z m1569 -98
c2 -4 -5 -9 -17 -9 -17 -2 -19 0 -7 7 18 12 18 12 24 2z m-2274 -42 c0 -5 -4
-10 -10 -10 -5 0 -10 5 -10 10 0 6 5 10 10 10 6 0 10 -4 10 -10z m895 -18 c-3
-3 -11 0 -18 7 -9 10 -8 11 6 5 10 -3 15 -9 12 -12z m190 -120 c-3 -3 -11 0
-18 7 -9 10 -8 11 6 5 10 -3 15 -9 12 -12z m-900 -22 c3 -6 -1 -7 -9 -4 -18 7
-21 14 -7 14 6 0 13 -4 16 -10z m2595 -74 c0 -2 -7 -7 -16 -10 -8 -3 -12 -2
-9 4 6 10 25 14 25 6z m-2465 -16 c3 -5 1 -10 -4 -10 -6 0 -11 5 -11 10 0 6 2
10 4 10 3 0 8 -4 11 -10z m961 -27 c-6 -6 -46 20 -46 30 0 4 11 0 25 -9 14 -9
24 -19 21 -21z m594 27 c0 -5 -5 -10 -11 -10 -5 0 -7 5 -4 10 3 6 8 10 11 10
2 0 4 -4 4 -10z m922 -22 c-7 -7 -12 -8 -12 -2 0 14 12 26 19 19 2 -3 -1 -11
-7 -17z m-2372 -59 c0 -14 -17 -10 -23 5 -4 10 -1 13 9 9 7 -3 14 -9 14 -14z
m935 11 c3 -5 1 -10 -4 -10 -6 0 -11 5 -11 10 0 6 2 10 4 10 3 0 8 -4 11 -10z
m71 -47 c-6 -6 -36 9 -36 18 0 5 9 4 20 -3 10 -7 18 -14 16 -15z m1209 -24
c-4 -5 -16 -14 -28 -19 -20 -10 -20 -10 -4 3 9 8 17 20 17 26 0 7 5 9 10 6 6
-4 8 -11 5 -16z m-2140 -9 c3 -5 2 -10 -4 -10 -5 0 -13 5 -16 10 -3 6 -2 10 4
10 5 0 13 -4 16 -10z m1025 -16 c0 -2 -7 -4 -15 -4 -8 0 -15 4 -15 10 0 5 7 7
15 4 8 -4 15 -8 15 -10z m-845 -124 c3 -6 -1 -7 -9 -4 -18 7 -21 14 -7 14 6 0
13 -4 16 -10z m1755 -10 c0 -5 -5 -10 -11 -10 -5 0 -7 5 -4 10 3 6 8 10 11 10
2 0 4 -4 4 -10z m-1605 -90 c-3 -5 -10 -10 -16 -10 -5 0 -9 5 -9 10 0 6 7 10
16 10 8 0 12 -4 9 -10z m1475 6 c0 -3 -4 -8 -10 -11 -5 -3 -10 -1 -10 4 0 6 5
11 10 11 6 0 10 -2 10 -4z m-150 -86 c0 -5 -5 -10 -11 -10 -5 0 -7 5 -4 10 3
6 8 10 11 10 2 0 4 -4 4 -10z m-85 -70 c-3 -5 -11 -10 -16 -10 -6 0 -7 5 -4
10 3 6 11 10 16 10 6 0 7 -4 4 -10z m-835 -80 c0 -5 -2 -10 -4 -10 -3 0 -8 5
-11 10 -3 6 -1 10 4 10 6 0 11 -4 11 -10z m108 -75 c1 -1 -6 -5 -16 -7 -10 -3
-27 1 -37 9 -17 12 -16 13 15 7 19 -4 36 -8 38 -9z m399 -31 c-3 -3 -12 -4
-19 -1 -8 3 -5 6 6 6 11 1 17 -2 13 -5z m-277 -44 c24 -15 7 -18 -20 -3 -14 7
-18 13 -10 13 8 0 22 -4 30 -10z m190 -4 c0 -3 -4 -8 -10 -11 -5 -3 -10 -1
-10 4 0 6 5 11 10 11 6 0 10 -2 10 -4z"/>
<path d="M11477 11934 c-710 -99 -1382 -279 -2017 -542 -886 -366 -1669 -857
-2395 -1501 -213 -189 -575 -556 -771 -781 -21 -25 -41 -47 -44 -50 -33 -31
-258 -310 -382 -475 -209 -277 -509 -752 -623 -987 -34 -71 -10 -39 84 112 42
69 107 168 144 220 36 52 80 117 99 143 18 27 77 106 130 177 548 732 1187
1353 1933 1877 748 526 1601 935 2425 1162 41 12 89 25 105 31 93 29 480 115
740 164 136 25 481 65 670 76 197 13 226 21 244 71 13 39 -12 237 -37 289 -16
34 -19 35 -77 36 -33 1 -136 -9 -228 -22z"/>
<path d="M5835 3850 c-205 -22 -342 -144 -353 -316 -6 -95 15 -157 71 -211 68
-66 137 -94 376 -153 141 -35 191 -71 191 -138 0 -42 -41 -86 -96 -101 -113
-31 -319 1 -433 69 l-52 30 -15 -35 c-8 -20 -26 -61 -39 -92 -30 -66 -28 -69
58 -110 137 -66 387 -95 522 -62 127 31 224 100 273 194 23 43 27 63 27 135 0
75 -3 91 -27 131 -56 95 -123 131 -352 189 -222 56 -256 77 -256 154 0 101
152 150 332 107 49 -11 109 -32 136 -45 l48 -24 38 94 c21 52 37 96 35 97 -82
46 -167 73 -271 87 -82 11 -113 11 -213 0z"/>
<path d="M7215 3850 c-169 -19 -309 -118 -344 -245 -14 -50 -14 -138 -1 -186
15 -52 84 -125 149 -158 55 -27 161 -62 231 -76 49 -10 156 -42 183 -56 74
-38 91 -107 39 -159 -41 -41 -99 -53 -222 -47 -110 5 -192 29 -288 82 l-43 24
-8 -22 c-5 -12 -23 -53 -41 -92 l-31 -70 28 -22 c35 -29 170 -78 254 -93 159
-30 351 -8 456 52 210 118 234 389 45 509 -50 32 -152 66 -292 99 -114 26
-186 56 -205 84 -21 30 -19 89 5 119 55 70 230 83 380 27 47 -17 92 -33 101
-36 12 -4 25 15 54 82 l37 88 -21 17 c-35 29 -173 69 -268 79 -97 11 -98 11
-198 0z"/>
<path d="M9355 3851 c-136 -17 -241 -68 -341 -166 -113 -111 -164 -240 -164
-410 2 -257 175 -472 435 -540 82 -22 243 -22 325 0 110 28 280 131 280 169 0
13 -132 146 -145 146 -3 0 -26 -16 -49 -35 -78 -63 -128 -80 -241 -80 -88 1
-107 4 -156 28 -65 32 -131 95 -159 152 -10 22 -25 72 -31 110 -24 138 36 290
139 356 142 90 333 77 456 -32 l36 -31 75 68 c41 37 75 73 75 80 0 40 -173
146 -280 172 -65 16 -185 22 -255 13z"/>
<path d="M1800 3291 l0 -548 31 -7 c41 -8 692 -8 742 0 l38 7 -3 96 -3 96
-277 3 -278 2 0 450 0 450 -125 0 -125 0 0 -549z"/>
<path d="M2720 3285 l0 -556 123 3 122 3 3 553 2 552 -125 0 -125 0 0 -555z"/>
<path d="M3192 3288 l3 -553 123 -1 122 -2 0 334 c0 184 3 334 8 334 4 -1 32
-32 62 -69 30 -38 154 -189 274 -335 l219 -268 91 3 c50 1 97 4 104 7 9 3 12
123 12 553 l0 549 -125 0 -125 0 0 -330 c0 -350 -2 -362 -45 -302 -20 27 -87
111 -335 412 -75 91 -145 177 -155 192 -20 27 -22 27 -128 28 l-107 0 2 -552z"/>
<path d="M4430 3291 l0 -549 45 -6 c53 -8 179 -6 195 4 6 4 11 58 13 142 l2
136 76 77 75 77 166 -205 c92 -112 174 -212 183 -221 14 -14 38 -16 151 -15
76 1 134 6 134 11 0 5 -38 58 -84 116 -47 59 -150 190 -230 291 -80 101 -146
190 -146 198 0 7 30 45 68 85 37 40 99 106 138 148 116 123 196 209 216 233
l20 22 -134 3 -133 3 -85 -88 c-47 -48 -157 -163 -245 -255 -87 -93 -162 -168
-167 -168 -4 0 -8 115 -8 255 l0 255 -125 0 -125 0 0 -549z"/>
<path d="M7898 3318 c-2 -601 -3 -569 14 -580 15 -9 781 -11 816 -2 21 6 22
11 22 99 l0 92 -41 7 c-23 4 -159 6 -303 6 l-261 -1 0 128 0 128 258 3 257 2
0 95 0 95 -257 2 -258 3 0 120 0 120 293 3 292 2 0 100 0 100 -415 0 -415 0
-2 -522z"/>
<path d="M10020 3503 c0 -352 6 -420 41 -515 40 -107 151 -209 268 -246 87
-26 317 -24 392 4 131 50 221 138 265 263 l28 76 4 378 3 377 -125 0 -125 0
-3 -367 c-3 -398 -5 -411 -61 -472 -90 -98 -303 -92 -379 10 -50 68 -52 81
-56 467 l-3 362 -125 0 -124 0 0 -337z"/>
<path d="M11240 3290 l0 -550 24 -6 c13 -3 68 -4 122 -2 l99 3 3 153 3 152
122 0 122 -1 85 -126 c132 -197 107 -179 254 -181 74 -1 126 3 126 9 0 5 -21
39 -47 77 -26 37 -77 111 -115 165 -37 54 -68 99 -68 101 0 2 19 15 43 29 57
34 124 107 149 164 26 59 35 191 18 264 -24 103 -104 199 -205 245 -95 44
-183 54 -471 54 l-264 0 0 -550z m618 307 c104 -67 109 -235 10 -311 -45 -34
-113 -46 -259 -46 l-119 0 0 196 0 196 163 -4 c158 -3 163 -4 205 -31z"/>
<path d="M12360 3287 l0 -552 105 -4 c57 -1 113 0 125 4 20 6 20 12 20 556 l0
549 -125 0 -125 0 0 -553z"/>
<path d="M12720 3735 l0 -105 175 0 175 0 0 -444 0 -443 38 -7 c48 -8 141 -8
181 0 l31 7 0 443 0 444 179 0 180 0 3 42 3 42 90 -149 c50 -83 130 -215 178
-295 l87 -146 0 -191 0 -190 31 -7 c40 -8 167 -8 197 0 22 6 22 8 22 199 l0
193 214 356 214 356 -122 0 -122 0 -74 -122 c-70 -114 -111 -182 -190 -317
-39 -66 -22 -82 -174 172 -60 100 -121 201 -135 224 l-26 43 -577 0 -578 0 0
-105z"/>
<path d="M5615 2411 c-47 -8 -76 -23 -128 -64 -82 -64 -121 -178 -97 -285 12
-59 44 -122 61 -122 5 0 2 12 -8 28 l-17 27 23 -23 c12 -12 19 -27 15 -33 -3
-6 5 -22 17 -36 69 -73 210 -91 312 -39 31 15 57 32 57 37 0 13 -14 11 -28 -3
-8 -8 -12 -8 -12 -1 0 14 26 24 44 17 34 -13 106 130 106 211 0 133 -103 254
-240 285 -49 10 -48 10 -105 1z m6 -29 c-7 -2 -18 1 -23 6 -8 8 -4 9 13 5 13
-4 18 -8 10 -11z m136 -6 c-16 -13 -16 -14 8 -20 36 -9 103 -72 126 -120 44
-91 21 -221 -52 -295 -47 -47 -92 -64 -176 -64 -112 0 -170 43 -230 170 -11
23 -16 40 -11 37 6 -4 9 12 7 37 -6 95 57 200 141 236 19 8 67 15 107 16 39 2
75 6 79 10 4 4 10 7 13 7 3 0 -2 -7 -12 -14z m78 -36 c21 -16 33 -30 27 -30
-6 0 -14 5 -18 11 -3 6 -20 19 -38 30 -17 10 -26 19 -20 19 6 0 28 -13 49 -30z
m-365 -44 c0 -3 -4 -8 -10 -11 -5 -3 -10 -1 -10 4 0 6 5 11 10 11 6 0 10 -2
10 -4z m444 -52 c3 -8 2 -12 -4 -9 -6 3 -10 10 -10 16 0 14 7 11 14 -7z m-500
-53 c-4 -17 -9 -30 -11 -27 -3 2 -2 19 2 36 9 41 17 33 9 -9z m525 -21 c0 -10
-3 -8 -9 5 -12 27 -12 43 0 25 5 -8 9 -22 9 -30z m-8 -121 c-5 -13 -10 -19
-10 -12 -1 15 10 45 15 40 3 -2 0 -15 -5 -28z m-21 -62 c0 -2 -10 -12 -21 -23
-22 -19 -22 -19 -10 4 10 18 31 31 31 19z m-344 -115 c-6 -5 -56 21 -56 29 0
5 13 0 29 -9 16 -9 28 -18 27 -20z m234 8 c0 -5 -4 -10 -10 -10 -5 0 -10 5
-10 10 0 6 5 10 10 10 6 0 10 -4 10 -10z m-77 -27 c-7 -2 -21 -2 -30 0 -10 3
-4 5 12 5 17 0 24 -2 18 -5z"/>
<path d="M9785 2406 c-135 -30 -225 -142 -225 -280 0 -65 16 -130 30 -121 4 3
6 -3 4 -13 -7 -25 74 -106 133 -134 68 -33 172 -32 236 1 106 55 158 134 165
252 4 67 1 84 -22 134 -18 40 -30 56 -40 52 -9 -4 -13 -1 -10 6 6 17 -41 60
-91 85 -51 26 -117 32 -180 18z m22 -22 c-3 -3 -12 -4 -19 -1 -8 3 -5 6 6 6
11 1 17 -2 13 -5z m143 -4 c0 -5 -2 -10 -4 -10 -3 0 -8 5 -11 10 -3 6 -1 10 4
10 6 0 11 -4 11 -10z m-210 -5 c0 -2 -10 -9 -22 -15 -22 -11 -22 -10 -4 4 21
17 26 19 26 11z m191 -16 c62 -15 149 -113 149 -166 0 -13 5 -34 12 -46 11
-21 11 -21 19 -2 7 19 8 19 8 -2 1 -12 -5 -26 -13 -30 -7 -4 -21 -34 -30 -65
-55 -193 -307 -235 -428 -73 -21 28 -38 60 -38 73 0 12 -6 22 -12 22 -8 0 -9
3 -3 8 6 4 10 35 11 68 1 77 32 135 98 182 67 48 126 56 227 31z m109 -47 c0
-1 -9 2 -20 8 -11 6 -20 15 -20 20 0 6 9 2 20 -7 11 -10 20 -19 20 -21z m-360
25 c0 -2 -11 -14 -25 -27 -14 -13 -25 -21 -25 -17 0 3 10 15 22 27 21 19 28
24 28 17z m-58 -69 c-7 -7 -12 -20 -12 -31 0 -10 -4 -16 -10 -12 -12 7 9 55
24 55 6 0 5 -5 -2 -12z m-41 -95 c-12 -20 -14 -14 -5 12 4 9 9 14 11 11 3 -2
0 -13 -6 -23z m533 11 c3 -8 2 -12 -4 -9 -6 3 -10 10 -10 16 0 14 7 11 14 -7z
m-525 -144 c0 -9 -4 -8 -9 5 -5 11 -9 27 -9 35 0 9 4 8 9 -5 5 -11 9 -27 9
-35z m512 -9 c-3 -19 -12 -36 -19 -37 -7 -1 -8 0 -2 3 5 2 10 13 10 23 0 20
11 53 15 48 2 -2 0 -19 -4 -37z m-452 -86 c18 -19 26 -33 18 -30 -12 5 -63 65
-54 65 1 0 17 -16 36 -35z m401 -4 c0 -5 -15 -20 -32 -32 l-33 -22 30 31 c35
35 35 35 35 23z m-310 -64 c13 -5 13 -6 -1 -6 -8 -1 -24 6 -35 15 -19 15 -19
15 1 6 11 -5 27 -12 35 -15z m216 -2 c-11 -8 -25 -15 -30 -15 -6 1 0 7 14 15
32 19 40 18 16 0z m-169 -11 c-3 -3 -12 -4 -19 -1 -8 3 -5 6 6 6 11 1 17 -2
13 -5z m63 -14 c11 -8 7 -9 -15 -4 -37 8 -45 14 -19 14 10 0 26 -5 34 -10z"/>
<path d="M4632 2402 c-7 -5 -10 -17 -6 -28 5 -15 4 -16 -4 -5 -9 12 -13 12
-26 2 -9 -8 -16 -20 -16 -27 0 -8 -4 -14 -10 -14 -6 0 -10 -26 -10 -59 0 -50
4 -62 28 -87 15 -16 60 -42 100 -57 111 -44 150 -103 116 -178 -23 -53 -48
-69 -107 -69 -40 0 -53 5 -78 29 -16 16 -32 43 -35 60 -5 22 -12 31 -26 31
-14 0 -18 -5 -14 -16 3 -9 6 -22 6 -30 0 -9 5 -12 11 -8 8 4 9 -1 4 -16 -5
-17 1 -29 30 -56 20 -18 52 -36 71 -40 40 -7 104 3 104 16 0 6 7 10 16 10 10
0 14 5 10 16 -3 8 -2 13 3 10 4 -3 17 4 27 15 14 15 20 40 22 92 3 62 1 76
-18 100 -21 26 -91 69 -107 65 -18 -4 -101 45 -113 67 -29 54 11 135 77 151
34 9 91 -19 103 -52 6 -14 14 -22 20 -19 5 3 10 2 10 -4 0 -5 -6 -12 -12 -14
-7 -3 -3 -6 10 -6 27 -1 28 18 6 61 -28 53 -52 67 -119 68 -33 0 -66 -4 -73
-8z m-22 -52 c0 -5 -5 -10 -11 -10 -5 0 -7 5 -4 10 3 6 8 10 11 10 2 0 4 -4 4
-10z m-1 -151 c31 -42 23 -44 -12 -2 -16 18 -25 33 -20 33 5 0 19 -14 32 -31z
m101 -59 c8 -5 11 -10 5 -10 -5 0 -17 5 -25 10 -8 5 -10 10 -5 10 6 0 17 -5
25 -10z m40 -11 c0 -5 -4 -9 -8 -9 -5 0 -9 7 -9 15 0 8 4 12 9 9 4 -3 8 -9 8
-15z m44 -24 c-4 -8 -10 -12 -15 -9 -11 6 -2 24 11 24 5 0 7 -7 4 -15z m41
-91 l4 -59 -9 59 c-5 32 -15 66 -22 75 -11 15 -10 15 6 0 11 -11 18 -35 21
-75z m-14 -97 c-10 -9 -11 -8 -5 6 3 10 9 15 12 12 3 -3 0 -11 -7 -18z m-195
-36 c5 -5 18 -11 29 -14 20 -5 19 -5 -1 -6 -11 0 -29 6 -40 14 -10 8 -14 15
-8 15 5 0 14 -4 20 -9z m136 -17 c-12 -8 -32 -13 -45 -11 -19 4 -18 4 5 6 15
0 30 6 33 11 3 6 11 10 18 10 6 0 1 -7 -11 -16z"/>
<path d="M6517 2404 c-4 -4 -7 -133 -7 -286 l0 -278 126 0 c114 0 125 2 122
18 -3 14 -17 17 -101 20 -53 1 -98 4 -99 5 -1 1 -4 119 -7 261 -6 245 -11 283
-34 260z m20 -366 c-1 -68 -3 -15 -3 117 0 132 2 187 3 123 2 -64 2 -172 0
-240z"/>
<path d="M7280 2193 c0 -202 1 -215 24 -266 19 -45 31 -58 68 -76 47 -22 62
-26 54 -13 -3 5 1 9 9 9 8 0 11 -5 8 -10 -11 -19 90 2 123 25 44 30 54 57 65
163 9 100 12 369 3 377 -3 3 -14 3 -25 1 -19 -5 -20 -14 -18 -217 2 -197 0
-214 -19 -253 -42 -80 -166 -86 -223 -10 -23 31 -24 37 -27 259 -3 217 -4 227
-23 225 -18 -1 -19 -11 -19 -214z m330 -233 c-10 -23 -10 -22 -5 9 3 18 6 52
7 75 2 38 2 37 5 -9 2 -28 -1 -62 -7 -75z m-277 -45 c7 -5 19 -19 27 -30 8
-11 0 -7 -18 9 -18 17 -31 39 -31 50 1 20 1 20 6 1 3 -11 10 -24 16 -30z m67
-55 c0 -5 -2 -10 -4 -10 -3 0 -8 5 -11 10 -3 6 -1 10 4 10 6 0 11 -4 11 -10z
m117 -6 c-3 -3 -12 -4 -19 -1 -8 3 -5 6 6 6 11 1 17 -2 13 -5z"/>
<path d="M8396 2403 c-3 -4 -58 -6 -121 -5 -110 2 -115 1 -115 -19 0 -18 6
-20 48 -19 26 1 53 1 60 1 9 -1 12 -60 12 -261 0 -253 1 -260 20 -260 19 0 20
7 20 258 0 148 4 263 10 272 7 11 10 11 10 2 0 -9 14 -12 45 -11 41 3 45 5 44
28 -1 17 -3 20 -6 9 -2 -10 -8 -18 -13 -18 -5 0 -7 7 -4 15 6 16 2 20 -10 8z
m-89 -29 c-3 -3 -12 -4 -19 -1 -8 3 -5 6 6 6 11 1 17 -2 13 -5z"/>
<path d="M8973 2403 c-10 -3 -13 -70 -13 -284 l0 -279 25 0 25 0 -2 282 c-2
177 -7 282 -13 284 -5 1 -16 0 -22 -3z m14 -405 c-1 -73 -3 -14 -3 132 0 146
2 205 3 133 2 -73 2 -193 0 -265z"/>
<path d="M10687 2403 c-4 -3 -7 -132 -7 -285 l0 -278 23 0 22 0 -3 255 c-2
177 0 255 8 255 6 0 15 -10 20 -22 5 -13 66 -113 135 -223 69 -110 133 -215
142 -232 14 -27 23 -33 50 -33 l33 0 0 278 c0 153 -3 281 -6 285 -3 3 -12 3
-20 0 -12 -4 -14 -46 -14 -249 1 -134 -2 -249 -5 -255 -4 -6 -18 7 -32 33 -14
23 -36 59 -48 78 -12 19 -49 78 -81 130 -88 142 -132 209 -118 181 5 -9 3 -12
-5 -7 -6 4 -9 11 -6 16 3 5 -2 22 -12 37 -9 15 -18 29 -19 31 -4 7 -51 11 -57
5z m400 -130 c-2 -21 -4 -4 -4 37 0 41 2 58 4 38 2 -21 2 -55 0 -75z m-284 7
c3 -11 1 -18 -4 -14 -5 3 -9 12 -9 20 0 20 7 17 13 -6z m76 -124 c-3 -3 -11 5
-18 17 -13 21 -12 21 5 5 10 -10 16 -20 13 -22z m71 -106 c0 -5 -2 -10 -4 -10
-3 0 -8 5 -11 10 -3 6 -1 10 4 10 6 0 11 -4 11 -10z m55 -100 c3 -5 1 -10 -4
-10 -6 0 -11 5 -11 10 0 6 2 10 4 10 3 0 8 -4 11 -10z m79 -85 c-4 -8 -8 -15
-10 -15 -2 0 -4 7 -4 15 0 8 4 15 10 15 5 0 7 -7 4 -15z"/>
<path d="M11743 2395 c-38 -26 -64 -73 -68 -120 -2 -26 1 -45 6 -45 6 0 8 -4
5 -8 -11 -18 51 -70 109 -92 114 -44 145 -86 126 -169 -5 -24 -11 -44 -13 -45
-47 -36 -90 -45 -145 -30 -26 7 -63 61 -63 93 0 15 -6 21 -21 21 -19 0 -21 -4
-15 -31 3 -17 6 -35 6 -40 0 -5 5 -9 10 -9 6 0 8 12 5 28 -4 22 -3 21 8 -7 7
-18 21 -39 30 -46 9 -7 17 -16 17 -20 0 -5 -11 2 -25 15 -14 13 -27 21 -30 19
-3 -3 11 -20 29 -38 28 -27 43 -34 85 -36 30 -2 51 0 51 6 0 6 5 7 10 4 16
-10 69 34 90 75 26 51 26 125 0 167 -19 32 -46 47 -155 89 -62 24 -87 65 -74
121 21 97 166 108 193 15 6 -22 15 -32 28 -32 15 0 18 5 12 23 -12 41 -34 76
-56 91 -29 21 -126 21 -155 1z m47 -5 c-8 -5 -19 -10 -25 -10 -5 0 -3 5 5 10
8 5 20 10 25 10 6 0 3 -5 -5 -10z m100 -5 c7 -8 8 -15 2 -15 -5 0 -15 7 -22
15 -7 8 -8 15 -2 15 5 0 15 -7 22 -15z m43 -65 c3 -11 1 -18 -4 -14 -5 3 -9
12 -9 20 0 20 7 17 13 -6z m-213 -115 c14 -19 14 -19 -2 -6 -10 7 -18 18 -18
24 0 6 1 8 3 6 1 -2 9 -13 17 -24z m37 -31 c-3 -3 -12 -4 -19 -1 -8 3 -5 6 6
6 11 1 17 -2 13 -5z m83 -39 c14 -8 21 -14 15 -14 -5 0 -21 6 -35 14 -14 8
-20 14 -15 14 6 0 21 -6 35 -14z m55 -25 c3 -6 -1 -7 -9 -4 -18 7 -21 14 -7
14 6 0 13 -4 16 -10z m52 -72 c-3 -8 -6 -5 -6 6 -1 11 2 17 5 13 3 -3 4 -12 1
-19z m-13 -117 c3 -5 -2 -15 -12 -22 -15 -12 -16 -12 -5 2 7 9 10 19 6 22 -3
4 -4 7 0 7 3 0 8 -4 11 -9z m-49 -50 c-12 -10 -65 -24 -65 -16 0 2 15 9 33 14
43 12 42 12 32 2z m-95 -5 c0 -2 -9 -6 -20 -9 -11 -3 -20 -1 -20 4 0 5 9 9 20
9 11 0 20 -2 20 -4z"/>
</g>
</svg>
